<?xml version="1.0" encoding="UTF-8"?> <svg xmlns="http://www.w3.org/2000/svg" xmlns:xlink="http://www.w3.org/1999/xlink" width="500" zoomAndPan="magnify" viewBox="0 0 375 374.999991" height="500" preserveAspectRatio="xMidYMid meet" version="1.0"><defs><g></g><clipPath id="0b03519cae"><path d="M 22.902344 65.128906 L 287 65.128906 L 287 170.128906 L 22.902344 170.128906 Z M 22.902344 65.128906 " clip-rule="nonzero"></path></clipPath><clipPath id="0177f87ac8"><path d="M 171 65.128906 L 354.402344 65.128906 L 354.402344 170 L 171 170 Z M 171 65.128906 " clip-rule="nonzero"></path></clipPath><clipPath id="8c62be0f71"><path d="M 263 65.128906 L 303 65.128906 L 303 118 L 263 118 Z M 263 65.128906 " clip-rule="nonzero"></path></clipPath></defs><rect x="-37.5" width="450" fill="#ffffff" y="-37.499999" height="449.999989" fill-opacity="1"></rect><rect x="-37.5" width="450" fill="#fd5d14" y="-37.499999" height="449.999989" fill-opacity="1"></rect><g clip-path="url(#0b03519cae)"><path fill="#ffffff" d="M 160.894531 65.222656 L 22.902344 170.085938 L 62.382812 170.085938 L 160.894531 96.160156 L 253.925781 170.085938 L 286.34375 170.085938 Z M 160.894531 65.222656 " fill-opacity="1" fill-rule="nonzero"></path></g><g clip-path="url(#0177f87ac8)"><path fill="#ffffff" d="M 171.496094 65.347656 L 295.132812 169.964844 L 354.414062 169.964844 L 229.390625 65.347656 Z M 171.496094 65.347656 " fill-opacity="1" fill-rule="nonzero"></path></g><path fill="#ffffff" d="M 153.296875 145.859375 L 117.257812 145.859375 L 153.296875 117.78125 Z M 153.296875 145.859375 " fill-opacity="1" fill-rule="nonzero"></path><path fill="#ffffff" d="M 166.25 145.859375 L 202.289062 145.859375 L 166.25 117.78125 Z M 166.25 145.859375 " fill-opacity="1" fill-rule="nonzero"></path><g clip-path="url(#8c62be0f71)"><path fill="#ffffff" d="M 263.535156 86.097656 L 302.246094 117.53125 L 302.246094 65.171875 L 263.535156 65.171875 Z M 263.535156 86.097656 " fill-opacity="1" fill-rule="nonzero"></path></g><g fill="#ffffff" fill-opacity="1"><g transform="translate(21.696663, 295.706904)"><g><path d="M 6.929688 -8.015625 L 6.960938 -8.015625 L 12.304688 0 L 18.574219 0 L 12.140625 -8.25 C 14.980469 -8.941406 17.253906 -11.449219 17.253906 -15.242188 C 17.253906 -19.5 14.023438 -22.433594 10.394531 -22.433594 L 1.980469 -22.433594 L 1.980469 0 L 6.929688 0 Z M 9.566406 -18.542969 C 11.019531 -18.542969 12.539062 -17.289062 12.539062 -15.242188 C 12.539062 -13.097656 11.019531 -11.910156 9.566406 -11.910156 L 6.929688 -11.910156 L 6.929688 -18.542969 Z M 9.566406 -18.542969 "></path></g></g></g><g fill="#ffffff" fill-opacity="1"><g transform="translate(42.843173, 295.706904)"><g><path d="M 14.980469 -4.488281 L 6.929688 -4.488281 L 6.929688 -9.007812 L 14.648438 -9.007812 L 14.648438 -13.492188 L 6.929688 -13.492188 L 6.929688 -17.949219 L 14.980469 -17.949219 L 14.980469 -22.433594 L 1.980469 -22.433594 L 1.980469 0 L 14.980469 0 Z M 14.980469 -4.488281 "></path></g></g></g><g fill="#ffffff" fill-opacity="1"><g transform="translate(62.769114, 295.706904)"><g><path d="M 29.957031 0 L 25.601562 -22.433594 L 19.730469 -22.433594 L 15.078125 -6.699219 L 10.394531 -22.433594 L 4.519531 -22.433594 L 0.164062 0 L 5.609375 0 L 8.25 -15.472656 L 12.636719 0 L 17.484375 0 L 21.875 -15.472656 L 24.511719 0 Z M 29.957031 0 "></path></g></g></g><g fill="#ffffff" fill-opacity="1"><g transform="translate(95.857394, 295.706904)"><g><path d="M 19.300781 -11.25 C 19.300781 -7.785156 16.167969 -4.617188 12.703125 -4.617188 C 9.238281 -4.617188 6.105469 -7.785156 6.105469 -11.25 C 6.105469 -14.714844 9.238281 -17.847656 12.703125 -17.847656 C 16.167969 -17.847656 19.300781 -14.714844 19.300781 -11.25 Z M 24.25 -11.21875 C 24.25 -17.421875 18.90625 -22.765625 12.703125 -22.765625 C 6.5 -22.765625 1.15625 -17.421875 1.15625 -11.21875 C 1.15625 -5.015625 6.5 0.328125 12.703125 0.328125 C 18.90625 0.328125 24.25 -5.015625 24.25 -11.21875 Z M 24.25 -11.21875 "></path></g></g></g><g fill="#ffffff" fill-opacity="1"><g transform="translate(124.228349, 295.706904)"><g><path d="M 19.597656 0 L 19.597656 -22.433594 L 14.648438 -22.433594 L 14.648438 -8.445312 L 6.929688 -22.433594 L 1.980469 -22.433594 L 1.980469 0 L 6.929688 0 L 6.929688 -13.988281 L 14.648438 0 Z M 19.597656 0 "></path></g></g></g><g fill="#ffffff" fill-opacity="1"><g transform="translate(148.772652, 295.706904)"><g><path d="M 11.515625 -17.949219 L 17.914062 -17.949219 L 17.914062 -22.433594 L 0.164062 -22.433594 L 0.164062 -17.949219 L 6.566406 -17.949219 L 6.566406 0 L 11.515625 0 Z M 11.515625 -17.949219 "></path></g></g></g><g fill="#ffffff" fill-opacity="1"><g transform="translate(169.820189, 295.706904)"><g></g></g></g><g fill="#ffffff" fill-opacity="1"><g transform="translate(181.037218, 295.706904)"><g><path d="M 29.957031 0 L 25.601562 -22.433594 L 19.730469 -22.433594 L 15.078125 -6.699219 L 10.394531 -22.433594 L 4.519531 -22.433594 L 0.164062 0 L 5.609375 0 L 8.25 -15.472656 L 12.636719 0 L 17.484375 0 L 21.875 -15.472656 L 24.511719 0 Z M 29.957031 0 "></path></g></g></g><g fill="#ffffff" fill-opacity="1"><g transform="translate(214.125507, 295.706904)"><g><path d="M 14.980469 -4.488281 L 6.929688 -4.488281 L 6.929688 -9.007812 L 14.648438 -9.007812 L 14.648438 -13.492188 L 6.929688 -13.492188 L 6.929688 -17.949219 L 14.980469 -17.949219 L 14.980469 -22.433594 L 1.980469 -22.433594 L 1.980469 0 L 14.980469 0 Z M 14.980469 -4.488281 "></path></g></g></g><g fill="#ffffff" fill-opacity="1"><g transform="translate(234.051455, 295.706904)"><g><path d="M 10.691406 -3.496094 C 8.25 -3.496094 6.136719 -4.71875 6.003906 -7.390625 L 0.988281 -7.390625 C 1.023438 -1.914062 5.542969 0.527344 10.492188 0.527344 C 15.078125 0.527344 19.796875 -1.417969 19.796875 -6.699219 C 19.796875 -15.242188 6.828125 -12.371094 6.828125 -16.363281 C 6.828125 -18.046875 8.777344 -18.707031 10.160156 -18.707031 C 12.636719 -18.707031 13.988281 -17.949219 14.253906 -15.605469 L 19.035156 -15.605469 C 18.871094 -20.71875 14.714844 -22.765625 10.097656 -22.765625 C 6.003906 -22.765625 1.714844 -20.585938 1.714844 -15.96875 C 1.714844 -7.6875 14.683594 -10.492188 14.683594 -6.136719 C 14.683594 -4.125 12.238281 -3.496094 10.691406 -3.496094 Z M 10.691406 -3.496094 "></path></g></g></g><g fill="#ffffff" fill-opacity="1"><g transform="translate(257.804032, 295.706904)"><g><path d="M 17.550781 -4.488281 L 8.710938 -4.488281 L 18.078125 -22.433594 L 1.320312 -22.433594 L 1.320312 -17.949219 L 10.03125 -17.949219 L 0.660156 0 L 17.550781 0 Z M 17.550781 -4.488281 "></path></g></g></g><g fill="#ffffff" fill-opacity="1"><g transform="translate(279.511344, 295.706904)"><g><path d="M 6.929688 -10.03125 L 14.023438 0 L 20.6875 0 L 11.746094 -11.21875 L 20.355469 -22.433594 L 14.023438 -22.433594 L 6.929688 -12.40625 L 6.929688 -22.433594 L 1.980469 -22.433594 L 1.980469 0 L 6.929688 0 Z M 6.929688 -10.03125 "></path></g></g></g><g fill="#ffffff" fill-opacity="1"><g transform="translate(302.835089, 295.706904)"><g><path d="M 14.1875 -8.578125 L 8.511719 -8.578125 L 11.347656 -16.5625 Z M 22.566406 0 L 13.460938 -22.433594 L 9.269531 -22.433594 L 0.164062 0 L 5.476562 0 L 7.09375 -4.519531 L 15.636719 -4.519531 L 17.253906 0 Z M 22.566406 0 "></path></g></g></g><g fill="#ffffff" fill-opacity="1"><g transform="translate(328.533988, 295.706904)"><g><path d="M 23.859375 0 L 17.515625 0 L 7.265625 -17.8125 L 7.125 -17.8125 C 7.164062 -16.695312 7.210938 -15.578125 7.265625 -14.453125 C 7.328125 -13.328125 7.378906 -12.207031 7.421875 -11.09375 L 7.421875 0 L 2.96875 0 L 2.96875 -23.5625 L 9.265625 -23.5625 L 19.5 -5.90625 L 19.609375 -5.90625 C 19.554688 -6.988281 19.507812 -8.066406 19.46875 -9.140625 C 19.425781 -10.222656 19.394531 -11.3125 19.375 -12.40625 L 19.375 -23.5625 L 23.859375 -23.5625 Z M 19.765625 -30.828125 L 19.765625 -30.5 C 19.453125 -30.1875 19.039062 -29.8125 18.53125 -29.375 C 18.03125 -28.9375 17.488281 -28.472656 16.90625 -27.984375 C 16.320312 -27.503906 15.75 -27.046875 15.1875 -26.609375 C 14.632812 -26.179688 14.148438 -25.828125 13.734375 -25.546875 L 10.453125 -25.546875 L 10.453125 -25.96875 C 10.804688 -26.382812 11.21875 -26.875 11.6875 -27.4375 C 12.164062 -28 12.628906 -28.582031 13.078125 -29.1875 C 13.535156 -29.789062 13.925781 -30.335938 14.25 -30.828125 Z M 19.765625 -30.828125 "></path></g></g></g><g fill="#ffffff" fill-opacity="1"><g transform="translate(21.206412, 243.74017)"><g><path d="M 2.53125 0 L 2.53125 -57.078125 L 19.9375 -57.078125 L 24.71875 -22.265625 L 29.5 -57.078125 L 47.046875 -57.078125 L 47.046875 0 L 36.609375 0 L 36.609375 -41.140625 L 30.03125 0 L 19.796875 0 L 12.828125 -41.140625 L 12.828125 0 Z M 2.53125 0 "></path></g></g></g><g fill="#ffffff" fill-opacity="1"><g transform="translate(78.084358, 243.74017)"><g><path d="M 1 0 L 6.515625 -57.078125 L 25.84375 -57.078125 L 31.296875 0 L 20.46875 0 L 19.671875 -9.234375 L 12.765625 -9.234375 L 12.09375 0 Z M 13.625 -18.34375 L 18.8125 -18.34375 L 16.28125 -47.375 L 15.75 -47.375 Z M 13.625 -18.34375 "></path></g></g></g><g fill="#ffffff" fill-opacity="1"><g transform="translate(117.620087, 243.74017)"><g><path d="M 15.21875 0.53125 C 12.601562 0.53125 10.234375 0.0195312 8.109375 -1 C 5.984375 -2.019531 4.3125 -3.515625 3.09375 -5.484375 C 1.875 -7.453125 1.265625 -9.832031 1.265625 -12.625 L 1.265625 -26.90625 L 12.5 -26.90625 L 12.5 -13.296875 C 12.5 -12.273438 12.707031 -11.460938 13.125 -10.859375 C 13.539062 -10.265625 14.191406 -9.96875 15.078125 -9.96875 C 15.921875 -9.96875 16.550781 -10.242188 16.96875 -10.796875 C 17.394531 -11.347656 17.609375 -12.132812 17.609375 -13.15625 L 17.609375 -57.078125 L 29.109375 -57.078125 L 29.109375 -14.28125 C 29.109375 -11.3125 28.519531 -8.707031 27.34375 -6.46875 C 26.164062 -4.238281 24.523438 -2.515625 22.421875 -1.296875 C 20.316406 -0.078125 17.914062 0.53125 15.21875 0.53125 Z M 15.21875 0.53125 "></path></g></g></g><g fill="#ffffff" fill-opacity="1"><g transform="translate(155.893351, 243.74017)"><g><path d="M 16.078125 0.53125 C 10.898438 0.53125 7.15625 -0.75 4.84375 -3.3125 C 2.539062 -5.882812 1.390625 -10.03125 1.390625 -15.75 L 1.390625 -21.328125 L 12.625 -21.328125 L 12.625 -14.21875 C 12.625 -11.382812 13.53125 -9.96875 15.34375 -9.96875 C 16.363281 -9.96875 17.070312 -10.265625 17.46875 -10.859375 C 17.875 -11.460938 18.078125 -12.472656 18.078125 -13.890625 C 18.078125 -15.753906 17.851562 -17.289062 17.40625 -18.5 C 16.96875 -19.71875 16.40625 -20.738281 15.71875 -21.5625 C 15.03125 -22.382812 13.800781 -23.660156 12.03125 -25.390625 L 7.109375 -30.296875 C 3.296875 -34.023438 1.390625 -38.144531 1.390625 -42.65625 C 1.390625 -47.53125 2.507812 -51.238281 4.75 -53.78125 C 6.988281 -56.332031 10.253906 -57.609375 14.546875 -57.609375 C 19.691406 -57.609375 23.394531 -56.242188 25.65625 -53.515625 C 27.914062 -50.796875 29.046875 -46.535156 29.046875 -40.734375 L 17.40625 -40.734375 L 17.34375 -44.65625 C 17.34375 -45.40625 17.128906 -46 16.703125 -46.4375 C 16.285156 -46.882812 15.703125 -47.109375 14.953125 -47.109375 C 14.066406 -47.109375 13.398438 -46.863281 12.953125 -46.375 C 12.515625 -45.894531 12.296875 -45.234375 12.296875 -44.390625 C 12.296875 -42.523438 13.359375 -40.597656 15.484375 -38.609375 L 22.125 -32.234375 C 23.675781 -30.722656 24.960938 -29.289062 25.984375 -27.9375 C 27.003906 -26.59375 27.820312 -25 28.4375 -23.15625 C 29.0625 -21.320312 29.375 -19.140625 29.375 -16.609375 C 29.375 -10.984375 28.34375 -6.71875 26.28125 -3.8125 C 24.21875 -0.914062 20.816406 0.53125 16.078125 0.53125 Z M 16.078125 0.53125 "></path></g></g></g><g fill="#ffffff" fill-opacity="1"><g transform="translate(193.834392, 243.74017)"><g><path d="M 7.4375 0 L 7.4375 -46.125 L 0.671875 -46.125 L 0.671875 -57.078125 L 25.65625 -57.078125 L 25.65625 -46.125 L 18.875 -46.125 L 18.875 0 Z M 7.4375 0 "></path></g></g></g><g fill="#ffffff" fill-opacity="1"><g transform="translate(227.45649, 243.74017)"><g><path d="M 2.53125 0 L 2.53125 -57.078125 L 25.390625 -57.078125 L 25.390625 -46.046875 L 14.15625 -46.046875 L 14.15625 -34.953125 L 24.921875 -34.953125 L 24.921875 -24.1875 L 14.15625 -24.1875 L 14.15625 -11.09375 L 26.109375 -11.09375 L 26.109375 0 Z M 2.53125 0 "></path></g></g></g><g fill="#ffffff" fill-opacity="1"><g transform="translate(262.141699, 243.74017)"><g><path d="M 2.53125 -57.078125 L 20.0625 -57.078125 C 22.851562 -57.078125 25.015625 -56.445312 26.546875 -55.1875 C 28.078125 -53.925781 29.109375 -52.15625 29.640625 -49.875 C 30.171875 -47.59375 30.4375 -44.679688 30.4375 -41.140625 C 30.4375 -37.898438 30.015625 -35.367188 29.171875 -33.546875 C 28.328125 -31.734375 26.863281 -30.472656 24.78125 -29.765625 C 26.507812 -29.410156 27.757812 -28.546875 28.53125 -27.171875 C 29.3125 -25.804688 29.703125 -23.945312 29.703125 -21.59375 L 29.578125 0 L 18.40625 0 L 18.40625 -22.328125 C 18.40625 -23.921875 18.09375 -24.9375 17.46875 -25.375 C 16.851562 -25.820312 15.726562 -26.046875 14.09375 -26.046875 L 14.09375 0 L 2.53125 0 Z M 16.875 -35.953125 C 18.46875 -35.953125 19.265625 -37.679688 19.265625 -41.140625 C 19.265625 -42.640625 19.195312 -43.765625 19.0625 -44.515625 C 18.9375 -45.273438 18.695312 -45.796875 18.34375 -46.078125 C 17.988281 -46.367188 17.476562 -46.515625 16.8125 -46.515625 L 14.15625 -46.515625 L 14.15625 -35.953125 Z M 16.875 -35.953125 "></path></g></g></g><g fill="#ffffff" fill-opacity="1"><g transform="translate(301.145862, 243.74017)"><g><path d="M 2 0 L 2 -57.078125 L 13.03125 -57.078125 L 13.03125 0 Z M 2 0 "></path></g></g></g><g fill="#ffffff" fill-opacity="1"><g transform="translate(323.538698, 243.74017)"><g><path d="M 16.140625 0.53125 C 11.535156 0.53125 8.035156 -0.875 5.640625 -3.6875 C 3.253906 -6.5 2.0625 -10.453125 2.0625 -15.546875 L 2.0625 -42.734375 C 2.0625 -47.648438 3.253906 -51.359375 5.640625 -53.859375 C 8.035156 -56.359375 11.535156 -57.609375 16.140625 -57.609375 C 20.753906 -57.609375 24.253906 -56.359375 26.640625 -53.859375 C 29.035156 -51.359375 30.234375 -47.648438 30.234375 -42.734375 L 30.234375 -15.546875 C 30.234375 -10.410156 29.035156 -6.445312 26.640625 -3.65625 C 24.253906 -0.863281 20.753906 0.53125 16.140625 0.53125 Z M 16.140625 -9.96875 C 17.160156 -9.96875 17.847656 -10.410156 18.203125 -11.296875 C 18.554688 -12.179688 18.734375 -13.421875 18.734375 -15.015625 L 18.734375 -42.921875 C 18.734375 -44.171875 18.566406 -45.179688 18.234375 -45.953125 C 17.910156 -46.722656 17.238281 -47.109375 16.21875 -47.109375 C 14.3125 -47.109375 13.359375 -45.671875 13.359375 -42.796875 L 13.359375 -14.953125 C 13.359375 -13.316406 13.554688 -12.078125 13.953125 -11.234375 C 14.347656 -10.390625 15.078125 -9.96875 16.140625 -9.96875 Z M 16.140625 -9.96875 "></path></g></g></g></svg> 